<?xml version="1.0" encoding="UTF-8"?>
<svg xmlns="http://www.w3.org/2000/svg" xmlns:xlink="http://www.w3.org/1999/xlink" width="841.89pt" height="595.276pt" viewBox="0 0 841.89 595.276" version="1.2">
<g id="surface1">
<path style="fill:none;stroke-width:0.70866;stroke-linecap:round;stroke-linejoin:round;stroke:rgb(0%,0%,0%);stroke-opacity:1;stroke-miterlimit:10;" d="M 348.498177 300.801095 L 348.498177 303.300224 M 122.000379 303.300224 L 122.000379 300.801095 M 286.598765 288.399311 L 286.598765 300.801095 M 183.899791 300.801095 L 183.899791 288.399311 M 261.799108 19.799588 L 261.799108 285.900181 M 208.601673 37.399092 L 208.601673 19.799588 M 208.601673 285.900181 L 208.601673 71.800256 M 261.799108 285.900181 L 259.401665 288.399311 M 211.100803 288.399311 L 208.601673 285.900181 M 235.200391 303.300224 L 348.498177 303.300224 M 122.000379 303.300224 L 235.200391 303.300224 M 235.200391 300.801095 L 348.498177 300.801095 M 122.000379 300.801095 L 235.200391 300.801095 M 286.598765 288.399311 L 183.899791 288.399311 M 261.799108 19.799588 L 208.601673 19.799588 M 246.600959 71.800256 L 208.601673 71.800256 M 209.900126 71.800256 L 209.900126 44.50147 M 209.900126 44.50147 L 209.301743 42.201801 L 208.801134 39.999907 L 208.601673 38.001386 L 208.699448 36.10064 L 209.000596 34.399354 L 209.501204 32.799755 L 210.299048 31.501302 L 211.398039 30.3984 L 212.598716 29.600556 L 214.100541 28.998262 L 215.801826 28.59934 L 217.600887 28.501565 L 219.599408 28.59934 L 221.801302 28.998262 L 224.10097 29.600556 L 226.498414 30.3984 L 228.899768 31.501302 L 231.500584 32.799755 L 233.999714 34.399354 L 236.600529 36.10064 L 239.201345 38.001386 L 241.700474 39.999907 L 244.199604 42.201801 L 246.600959 44.50147 M 246.600959 44.50147 L 246.600959 71.800256 M 235.200391 285.900181 L 261.799108 285.900181 M 208.601673 285.900181 L 235.200391 285.900181 M 209.900126 44.50147 L 246.600959 44.50147 " transform="matrix(0.998785,0,0,-0.998785,0.456416,594.552879)"/>
<path style="fill:none;stroke-width:0.51024;stroke-linecap:butt;stroke-linejoin:miter;stroke:rgb(0%,0%,0%);stroke-opacity:1;stroke-dasharray:3.60001,1.8;stroke-dashoffset:5.16194;stroke-miterlimit:10;" d="M 235.2747 499.245283 L 239.518136 499.069288 L 243.730284 498.545214 L 247.887678 497.67306 L 251.955119 496.46065 L 255.909141 494.915805 L 259.726278 493.054168 L 263.371331 490.879652 L 266.828656 488.41181 L 270.066964 485.670198 L 273.070613 482.66655 L 275.812225 479.42433 L 278.280066 475.970916 L 280.454583 472.321952 L 282.32013 468.508726 L 283.861065 464.554704 L 285.073475 460.483352 L 285.945628 456.329869 L 286.469702 452.117721 L 286.645697 447.874285 L 286.469702 443.630849 L 285.945628 439.418701 L 285.073475 435.265218 L 283.861065 431.193866 L 282.32013 427.239844 L 280.454583 423.422707 L 278.280066 419.777654 L 275.812225 416.32033 L 273.070613 413.082021 L 270.066964 410.078372 L 266.828656 407.33676 L 263.371331 404.868919 L 259.726278 402.694402 L 255.909141 400.828855 L 251.955119 399.287921 L 247.887678 398.07551 L 243.730284 397.203357 L 239.518136 396.679283 L 235.2747 396.503288 L 231.035175 396.679283 L 226.819116 397.203357 L 222.665633 398.07551 L 218.594281 399.287921 L 214.640259 400.828855 L 210.827033 402.694402 L 207.178069 404.868919 L 203.724655 407.33676 L 200.482435 410.078372 L 197.482698 413.082021 L 194.737175 416.32033 L 192.269333 419.777654 L 190.098728 423.422707 L 188.23318 427.239844 L 186.688335 431.193866 L 185.475925 435.265218 L 184.607683 439.418701 L 184.079697 443.630849 L 183.903702 447.874285 L 184.079697 452.117721 L 184.607683 456.329869 L 185.475925 460.483352 L 186.688335 464.554704 L 188.23318 468.508726 L 190.098728 472.321952 L 192.269333 475.970916 L 194.737175 479.42433 L 197.482698 482.66655 L 200.482435 485.670198 L 203.724655 488.41181 L 207.178069 490.879652 L 210.827033 493.054168 L 214.640259 494.915805 L 218.594281 496.46065 L 222.665633 497.67306 L 226.819116 498.545214 L 231.035175 499.069288 L 235.2747 499.245283 " transform="matrix(0.998785,0,0,-0.998785,0.456416,594.552879)"/>
<path style="fill:none;stroke-width:0.51024;stroke-linecap:butt;stroke-linejoin:miter;stroke:rgb(0%,0%,0%);stroke-opacity:1;stroke-dasharray:3.60001,1.8;stroke-dashoffset:1.93687;stroke-miterlimit:10;" d="M 235.2747 421.259924 L 238.309637 421.435919 L 241.301552 421.952171 L 244.219159 422.80868 L 247.019436 423.989803 L 249.663272 425.483805 L 252.123292 427.271132 L 254.360385 429.324408 L 256.351084 431.624076 L 258.064102 434.131028 L 259.483796 436.817886 L 260.586698 439.64945 L 261.357165 442.590523 L 261.791286 445.598083 L 261.877328 448.633019 L 261.619202 451.660134 L 261.012997 454.640317 L 260.074357 457.530547 L 258.815015 460.295624 L 257.242792 462.89644 L 255.388978 465.301706 L 253.269215 467.480133 L 250.918704 469.404346 L 248.360909 471.046966 L 245.634941 472.388439 L 242.772089 473.40921 L 239.815372 474.097547 L 236.796079 474.445626 L 233.757232 474.445626 L 230.737939 474.097547 L 227.777311 473.40921 L 224.914458 472.388439 L 222.188491 471.046966 L 219.630696 469.404346 L 217.280185 467.480133 L 215.164333 465.301706 L 213.306608 462.89644 L 211.738296 460.295624 L 210.475043 457.530547 L 209.536403 454.640317 L 208.934109 451.660134 L 208.672071 448.633019 L 208.758113 445.598083 L 209.192235 442.590523 L 209.966613 439.64945 L 211.065604 436.817886 L 212.485297 434.131028 L 214.202227 431.624076 L 216.189015 429.324408 L 218.430019 427.271132 L 220.886127 425.483805 L 223.533875 423.989803 L 226.330241 422.80868 L 229.247847 421.952171 L 232.243674 421.435919 L 235.2747 421.259924 " transform="matrix(0.998785,0,0,-0.998785,0.456416,594.552879)"/>
<path style="fill:none;stroke-width:0.51024;stroke-linecap:butt;stroke-linejoin:miter;stroke:rgb(0%,0%,0%);stroke-opacity:1;stroke-dasharray:3.60001,1.8;stroke-dashoffset:1.61508;stroke-miterlimit:10;" d="M 235.2747 423.735587 L 238.184485 423.911582 L 241.051248 424.439568 L 243.835881 425.303899 L 246.491451 426.500665 L 248.986669 428.010311 L 251.282427 429.805461 L 253.343524 431.866558 L 255.138674 434.162316 L 256.64832 436.657535 L 257.845086 439.313104 L 258.713329 442.097737 L 259.237403 444.964501 L 259.413398 447.874285 L 259.237403 450.78407 L 258.713329 453.650834 L 257.845086 456.431555 L 256.64832 459.091036 L 255.138674 461.586255 L 253.343524 463.882012 L 251.282427 465.94311 L 248.986669 467.738259 L 246.491451 469.247905 L 243.835881 470.444672 L 241.051248 471.309003 L 238.184485 471.836988 L 235.2747 472.012983 L 232.364915 471.836988 L 229.498151 471.309003 L 226.71743 470.444672 L 224.057949 469.247905 L 221.562731 467.738259 L 219.270884 465.94311 L 217.209787 463.882012 L 215.410726 461.586255 L 213.90108 459.091036 L 212.708224 456.431555 L 211.839982 453.650834 L 211.311997 450.78407 L 211.136002 447.874285 L 211.311997 444.964501 L 211.839982 442.097737 L 212.708224 439.313104 L 213.90108 436.657535 L 215.410726 434.162316 L 217.209787 431.866558 L 219.270884 429.805461 L 221.562731 428.010311 L 224.057949 426.500665 L 226.71743 425.303899 L 229.498151 424.439568 L 232.364915 423.911582 L 235.2747 423.735587 " transform="matrix(0.998785,0,0,-0.998785,0.456416,594.552879)"/>
<path style="fill:none;stroke-width:0.51024;stroke-linecap:butt;stroke-linejoin:miter;stroke:rgb(0%,0%,0%);stroke-opacity:1;stroke-dasharray:3.60001,1.8;stroke-dashoffset:1.65475;stroke-miterlimit:10;" d="M 209.990079 456.17734 L 246.624425 423.802074 " transform="matrix(0.998785,0,0,-0.998785,0.456416,594.552879)"/>
<path style="fill:none;stroke-width:0.70866;stroke-linecap:round;stroke-linejoin:round;stroke:rgb(0%,0%,0%);stroke-opacity:1;stroke-miterlimit:10;" d="M 235.200391 334.599965 L 241.501013 334.701651 L 247.801636 335.300034 L 254.000572 336.101789 L 260.199509 337.400242 L 266.30067 338.898155 L 272.300146 340.798901 L 278.201846 343.000795 L 284.001861 345.601611 L 289.598503 348.499662 L 294.999595 351.601086 L 300.299002 355.101432 L 305.301172 358.899014 L 310.201656 362.899968 L 314.800993 367.198158 L 319.099183 371.69972 L 323.201823 376.498518 L 326.999405 381.500688 L 330.601437 386.698408 L 333.800636 392.099501 L 336.800373 397.700054 L 339.401189 403.398383 L 341.700858 409.300083 L 343.699379 415.201783 L 345.298979 421.299034 L 346.601342 427.501881 L 347.598647 433.700818 L 348.200941 440.00144 L 348.498177 446.200377 L 348.400402 452.500999 L 348.00148 458.801622 L 347.199725 465.098333 L 345.999048 471.301181 L 344.598909 477.398431 L 342.698163 483.401818 L 340.601866 489.299607 L 338.098826 495.099622 L 335.298549 500.801861 L 332.201036 506.300728 L 328.798466 511.600135 L 325.200345 516.70008 L 321.199391 521.600564 L 316.998976 526.199901 L 312.501325 530.599777 L 307.800301 534.800192 L 302.798131 538.69946 L 297.698186 542.301492 L 292.301005 545.598466 L 286.798226 548.69989 L 281.099898 551.39848 L 275.299884 553.799835 L 269.300408 555.798356 L 263.300933 557.601328 L 257.098085 558.89978 L 250.899149 559.998771 L 244.700212 560.698841 L 238.39959 560.999988 L 232.098967 560.999988 L 225.798345 560.698841 L 219.501633 559.998771 L 213.298786 558.89978 L 207.201535 557.601328 L 201.100374 555.798356 L 195.198673 553.799835 L 189.300884 551.39848 L 183.70033 548.69989 L 178.099777 545.598466 L 172.800371 542.301492 L 167.598739 538.69946 L 162.698255 534.800192 L 158.001143 530.599777 L 153.499581 526.199901 L 149.299166 521.600564 L 145.298212 516.70008 L 141.598405 511.600135 L 138.199745 506.300728 L 135.098322 500.801861 L 132.301956 495.099622 L 129.798915 489.299607 L 127.698708 483.401818 L 125.899647 477.398431 L 124.401734 471.301181 L 123.298832 465.098333 L 122.500988 458.801622 L 122.098154 452.500999 L 122.000379 446.200377 L 122.19984 440.00144 L 122.798224 433.700818 L 123.79944 427.501881 L 125.101803 421.299034 L 126.799178 415.201783 L 128.699924 409.300083 L 130.999593 403.398383 L 133.698183 397.700054 L 136.600146 392.099501 L 139.901031 386.698408 L 143.401377 381.500688 L 147.198959 376.498518 L 151.301599 371.69972 L 155.701475 367.198158 L 160.300812 362.899968 L 165.09961 358.899014 L 170.199555 355.101432 L 175.401186 351.601086 L 180.900054 348.499662 L 186.500607 345.601611 L 192.198935 343.000795 L 198.100636 340.798901 L 204.100111 338.898155 L 210.201273 337.400242 L 216.400209 336.101789 L 222.700832 335.300034 L 228.899768 334.701651 L 235.200391 334.599965 " transform="matrix(0.998785,0,0,-0.998785,0.456416,594.552879)"/>
<path style="fill:none;stroke-width:0.51024;stroke-linecap:butt;stroke-linejoin:miter;stroke:rgb(0%,0%,0%);stroke-opacity:1;stroke-dasharray:3.60001,1.8;stroke-dashoffset:1.68382;stroke-miterlimit:10;" d="M 640.430932 71.831544 L 640.430932 44.599245 " transform="matrix(0.998785,0,0,-0.998785,0.456416,594.552879)"/>
<path style="fill:none;stroke-width:0.51024;stroke-linecap:butt;stroke-linejoin:miter;stroke:rgb(0%,0%,0%);stroke-opacity:1;stroke-dasharray:3.60001,1.8;stroke-dashoffset:1.4707;stroke-miterlimit:10;" d="M 640.430932 44.599245 L 637.939624 42.280021 L 635.397474 40.082039 L 632.824035 38.024852 L 630.242775 36.131928 L 627.681069 34.414998 L 625.158473 32.889708 L 622.702365 31.579522 L 620.336209 30.488353 L 618.079562 29.627933 L 615.955888 29.006084 L 613.984744 28.630628 L 612.181772 28.505476 L 610.57044 28.630628 L 609.158568 29.006084 L 607.965713 29.627933 L 606.995785 30.488353 L 606.268339 31.579522 L 605.779464 32.889708 L 605.536982 34.414998 L 605.513516 35.177643 " transform="matrix(0.998785,0,0,-0.998785,0.456416,594.552879)"/>
<path style="fill:none;stroke-width:0.51024;stroke-linecap:butt;stroke-linejoin:miter;stroke:rgb(0%,0%,0%);stroke-opacity:1;stroke-dasharray:3.60001,1.8;stroke-dashoffset:1.81239;stroke-miterlimit:10;" d="M 640.430932 44.599245 L 608.055666 44.599245 " transform="matrix(0.998785,0,0,-0.998785,0.456416,594.552879)"/>
<path style="fill:none;stroke-width:0.51024;stroke-linecap:butt;stroke-linejoin:miter;stroke:rgb(0%,0%,0%);stroke-opacity:1;stroke-dasharray:3.60001,1.8;stroke-dashoffset:1.81239;stroke-miterlimit:10;" d="M 640.430932 71.831544 L 608.055666 71.831544 " transform="matrix(0.998785,0,0,-0.998785,0.456416,594.552879)"/>
<path style="fill:none;stroke-width:0.70866;stroke-linecap:round;stroke-linejoin:round;stroke:rgb(0%,0%,0%);stroke-opacity:1;stroke-miterlimit:10;" d="M 745.300511 300.801095 L 745.300511 303.300224 M 518.798803 303.300224 L 518.798803 300.801095 M 683.401099 288.399311 L 683.401099 300.801095 M 580.698215 300.801095 L 580.698215 288.399311 M 658.699217 19.799588 L 658.699217 285.900181 M 605.501783 35.099423 L 605.501783 19.799588 M 605.501783 285.900181 L 605.501783 71.800256 M 658.699217 285.900181 L 656.200088 288.399311 M 607.899226 288.399311 L 605.501783 285.900181 M 518.798803 303.300224 L 745.300511 303.300224 M 518.798803 300.801095 L 745.300511 300.801095 M 683.401099 288.399311 L 580.698215 288.399311 M 658.699217 19.799588 L 605.501783 19.799588 M 608.000912 71.800256 L 605.501783 71.800256 M 605.501783 35.099423 L 605.501783 36.10064 L 605.799019 38.001386 L 606.299627 39.999907 L 606.999696 42.201801 L 608.000912 44.50147 M 608.000912 44.50147 L 608.000912 71.800256 M 605.501783 285.900181 L 658.699217 285.900181 " transform="matrix(0.998785,0,0,-0.998785,0.456416,594.552879)"/>
<path style="fill:none;stroke-width:0.51024;stroke-linecap:butt;stroke-linejoin:miter;stroke:rgb(0%,0%,0%);stroke-opacity:1;stroke-dasharray:86.40001,3.60001,3.60001,3.60001;stroke-dashoffset:38.71231;stroke-miterlimit:10;" d="M 235.2747 462.047753 L 235.2747 568.223606 " transform="matrix(0.998785,0,0,-0.998785,0.456416,594.552879)"/>
<path style="fill:none;stroke-width:0.51024;stroke-linecap:butt;stroke-linejoin:miter;stroke:rgb(0%,0%,0%);stroke-opacity:1;stroke-dasharray:86.40001,3.60001,3.60001,3.60001;stroke-dashoffset:38.71231;stroke-miterlimit:10;" d="M 221.101232 447.874285 L 114.925379 447.874285 " transform="matrix(0.998785,0,0,-0.998785,0.456416,594.552879)"/>
<path style="fill:none;stroke-width:0.51024;stroke-linecap:butt;stroke-linejoin:miter;stroke:rgb(0%,0%,0%);stroke-opacity:1;stroke-dasharray:86.40001,3.60001,3.60001,3.60001;stroke-dashoffset:38.71231;stroke-miterlimit:10;" d="M 235.2747 433.700818 L 235.2747 327.524964 " transform="matrix(0.998785,0,0,-0.998785,0.456416,594.552879)"/>
<path style="fill:none;stroke-width:0.51024;stroke-linecap:butt;stroke-linejoin:miter;stroke:rgb(0%,0%,0%);stroke-opacity:1;stroke-dasharray:86.40001,3.60001,3.60001,3.60001;stroke-dashoffset:38.71231;stroke-miterlimit:10;" d="M 249.448167 447.874285 L 355.624021 447.874285 " transform="matrix(0.998785,0,0,-0.998785,0.456416,594.552879)"/>
<path style="fill:none;stroke-width:0.51024;stroke-linecap:round;stroke-linejoin:round;stroke:rgb(0%,0%,0%);stroke-opacity:1;stroke-miterlimit:10;" d="M 235.200391 447.799976 L 235.200391 454.898443 M 235.200391 447.799976 L 228.101924 447.799976 M 235.200391 447.799976 L 235.200391 440.70151 M 235.200391 447.799976 L 242.298858 447.799976 " transform="matrix(0.998785,0,0,-0.998785,0.456416,594.552879)"/>
</g>
</svg>
